<?xml version="1.0" encoding="UTF-8"?>
<!DOCTYPE svg PUBLIC "-//W3C//DTD SVG 1.0//EN" "http://www.w3.org/TR/2001/REC-SVG-20010904/DTD/svg10.dtd">
<!-- Creator: CorelDRAW 2020 (64-Bit) -->
<svg xmlns="http://www.w3.org/2000/svg" xml:space="preserve" width="150px" height="75px" version="1.0" shape-rendering="geometricPrecision" text-rendering="geometricPrecision" image-rendering="optimizeQuality" fill-rule="evenodd" clip-rule="evenodd"
viewBox="0 0 150 75"
 xmlns:xlink="http://www.w3.org/1999/xlink"
 xmlns:xodm="http://www.corel.com/coreldraw/odm/2003">
 <g id="Capa_x0020_1">
  <metadata id="CorelCorpID_0Corel-Layer"/>
  <g id="_1899527935584">
   <path fill="#FEFEFE" d="M7.17 28.15l-0.2 9.23c4.48,-0.34 11.63,-4.6 15.83,-6.54 9.37,-4.33 9.14,-1.96 8.87,-12.63 -4.77,-1 -18.88,7.63 -24.5,9.94z"/>
   <path fill="#FEFEFE" d="M7.51 52.69l9.48 -4.12c17.08,-8.19 15.14,-5.4 14.63,-15.37 -4.15,-0.99 -23.78,9.25 -24.48,11 -0.39,2.56 -0.71,6.77 0.37,8.49z"/>
   <path fill="#FEFEFE" d="M70.12 43.94c-3,-8.56 8.37,-8.49 5.36,0 -2.77,1.58 -2.59,1.58 -5.36,0zm10.59 5.25l0.49 -15.6c-6.99,0.03 -16.93,-2.07 -16.76,8.11 0.18,10.14 9.58,7.49 16.27,7.49z"/>
   <path fill="#FEFEFE" d="M49.47 49.19l4.23 -0.23 0.24 -7.69 7.66 -0.15 0 -4.46 -7.91 -0.26 0 -3.9 7.69 0 0.53 -5.05 -13.5 -0.01c0,10.68 -0.85,18.62 1.06,21.75z"/>
   <path fill="#FEFEFE" d="M129.42 48.7l0.53 -14.56 -5.09 -0.67c-0.01,3.81 0.73,8.25 -0.92,11.51 -6.37,0.32 -4.35,-5.52 -4.36,-11.12l-4.13 -0.26c-1.19,2.72 -1.91,11.47 0.71,14.39 2,2.23 11.25,1.42 13.26,0.71z"/>
   <path fill="#FEFEFE" d="M99.37 45.33c-5.52,-3.45 -2.65,-0.55 -6.87,-0.92 -3.82,-0.33 -3.61,-2.84 -2.05,-5.75 4.81,-1.47 6.63,3.22 9.07,-2.12 -4.76,-6.46 -15.27,-3.19 -15.05,5.15 0.23,8.42 12.25,11.41 14.9,3.64z"/>
   <path fill="#FEFEFE" d="M136.85 42.34l1.43 1.05 2.44 0.76c-1.29,1.09 1.82,1.1 -1.58,0.89 -1.98,-0.12 -0.72,-0.1 -1.72,-0.63l-2.17 -0.18c-2.89,1.92 -1.45,0.4 -2.15,2.69 4.08,4.73 13.67,4.53 12.19,-5.43l-3.48 -1.5 -1.5 -0.78 -1.68 -0.83c1.67,-1.31 0.33,-0.96 2.35,-0.23l1.4 -0.2 2.93 -1.24c-1.89,-3.55 -6.25,-4.53 -9.6,-2.79 -3.93,2.04 -3.3,7.21 1.14,8.42z"/>
   <path fill="#FEFEFE" d="M106.36 48.8l4.6 0.37c-0.07,-4.06 0.7,-2.76 -2.22,-4.69l-0.41 -5.4c0.24,-0.13 0.58,-0.46 0.66,-0.29 0.01,0.02 4.49,-1.31 1.15,-5.01l-1.29 -1.33c-2.28,-3.3 1.8,3.55 -0.6,-1.14l-0.77 -1.84c-3.72,1.13 -2.9,1.01 -4.55,3.06 -1.74,2.15 -2.91,1.42 -1.92,4.35 0.78,2.27 0.25,0.33 2.53,2.28 0,4.25 -1.14,7.9 2.82,9.64z"/>
   <path fill="#E3E3E5" d="M9.92 55.11c2.34,1.14 3.24,2.1 5.66,1.8 1.88,-2.17 1.12,-1.29 1.42,-4.45 -1.01,-0.77 -0.71,1 -1.13,-0.77 -0.06,-0.28 -0.45,-0.16 -0.62,-0.32 -2.69,1.36 -3.96,1.38 -5.33,3.74z"/>
   <path fill="#88828E" d="M7.51 52.69c1.3,2.88 0.58,1.52 2.41,2.42 1.37,-2.36 2.64,-2.38 5.33,-3.74 0.17,0.16 0.56,0.04 0.62,0.32 0.42,1.77 0.12,0 1.13,0.77l-0.01 -3.89 -9.48 4.12z"/>
   <path fill="#88828E" d="M106.36 48.8c2.73,1.73 1.93,1.54 5.17,0.46l0.11 -4.45 -2.9 -0.33c2.92,1.93 2.15,0.63 2.22,4.69l-4.6 -0.37z"/>
   <path fill="#141419" d="M138.28 43.39c-1.44,0.14 -1.27,-0.28 -0.86,1.02 1,0.53 -0.26,0.51 1.72,0.63 3.4,0.21 0.29,0.2 1.58,-0.89l-2.44 -0.76z"/>
   <path fill="#88828E" d="M135.25 44.23l2.17 0.18c-0.41,-1.3 -0.58,-0.88 0.86,-1.02l-1.43 -1.05c-0.19,0.2 -0.42,0.24 -0.53,0.65 -0.11,0.4 -0.4,0.47 -0.53,0.63 -0.13,0.15 -0.34,0.42 -0.54,0.61z"/>
   <path fill="#2F2F2F" d="M140.31 39.21c1.48,-0.08 1.27,0.29 0.67,-1.06 -2.02,-0.73 -0.68,-1.08 -2.35,0.23l1.68 0.83z"/>
   <path fill="#88828E" d="M140.31 39.21l1.5 0.78 0.57 -2.04 -1.4 0.2c0.6,1.35 0.81,0.98 -0.67,1.06z"/>
  </g>
 </g>
</svg>
